<?xml version="1.0" encoding="UTF-8"?>
<svg xmlns="http://www.w3.org/2000/svg" xmlns:xlink="http://www.w3.org/1999/xlink" viewBox="0 0 60 60" width="60px" height="60px">
<g id="surface713532">
<path style=" stroke:none;fill-rule:nonzero;fill:rgb(42.352942%,38.82353%,100%);fill-opacity:1;" d="M 10.445312 8 C 9.09375 8 8 9.09375 8 10.445312 L 8 49.554688 C 8 50.90625 9.09375 52 10.445312 52 L 27.554688 52 C 28.90625 52 30 50.90625 30 49.554688 L 30 10.445312 C 30 9.09375 28.90625 8 27.554688 8 Z M 30 19 C 30 25.066406 34.933594 30 41 30 C 47.066406 30 52 25.066406 52 19 C 52 12.933594 47.066406 8 41 8 C 34.933594 8 30 12.933594 30 19 Z M 41 30 C 34.933594 30 30 34.933594 30 41 C 30 47.066406 34.933594 52 41 52 C 47.066406 52 52 47.066406 52 41 C 52 34.933594 47.066406 30 41 30 Z M 41 30 "/>
</g>
</svg>
