<svg xmlns="http://www.w3.org/2000/svg" version="1.1" xmlns:xlink="http://www.w3.org/1999/xlink" viewBox="0 0 200 200" width="200" height="200"><metadata><rdf:RDF xmlns:rdf="http://www.w3.org/1999/02/22-rdf-syntax-ns#" xmlns:dc="http://purl.org/dc/elements/1.1/"><rdf:Description><dc:creator>RealFaviconGenerator</dc:creator><dc:source>https://realfavicongenerator.net</dc:source></rdf:Description></rdf:RDF></metadata><rect width="200" height="200" fill="url('#gradient')"></rect><defs><linearGradient id="gradient" gradientTransform="rotate(45 0.5 0.5)"><stop offset="0%" stop-color="#000000"></stop><stop offset="100%" stop-color="#3a3a3a"></stop></linearGradient></defs><g><g fill="#ffffff" transform="matrix(7.648132780082988,0,0,7.648132780082988,1.7961748367523143,138.469396643421)" stroke="#ffffff" stroke-width="0"><path d="M12.96-14.22L12.96 0L9.55 0L9.55-5.94L4.50-5.94L4.50 0L1.07 0L1.07-14.22L4.50-14.22L4.50-8.57L9.55-8.57L9.55-14.22L12.96-14.22ZM14.59-5.24L14.59-5.36Q14.59-6.96 15.12-8.19Q15.64-9.42 16.63-10.09Q17.62-10.76 18.93-10.76L18.93-10.76Q20.58-10.76 21.50-9.65L21.50-9.65L21.62-10.57L24.61-10.57L24.61-0.40Q24.61 1.00 23.96 2.03Q23.31 3.06 22.08 3.61Q20.85 4.16 19.23 4.16L19.23 4.16Q18.07 4.16 16.98 3.72Q15.89 3.28 15.31 2.58L15.31 2.58L16.69 0.64Q17.61 1.73 19.11 1.73L19.11 1.73Q21.30 1.73 21.30-0.52L21.30-0.52L21.30-0.85Q20.35 0.20 18.91 0.20L18.91 0.20Q16.97 0.20 15.78-1.28Q14.59-2.76 14.59-5.24L14.59-5.24ZM17.89-5.16L17.89-5.16Q17.89-3.86 18.38-3.10Q18.87-2.34 19.75-2.34L19.75-2.34Q20.81-2.34 21.30-3.06L21.30-3.06L21.30-7.50Q20.82-8.22 19.77-8.22L19.77-8.22Q18.89-8.22 18.39-7.44Q17.89-6.65 17.89-5.16Z"></path></g></g></svg>